# xmcd
#
# Track frame offsets:
#	150
#	18907
#	34632
#	53590
#	70267
#	87431
#	104290
#	120677
#	139017
#	153653
#	168596
#	185010
#	204683
#
# Disc length: 2982 seconds
#
# Revision: 0
# Processed by: cddbd v1.5.1PL0 Copyright (c) Steve Scherf et al.
# Submitted via: dBpowerAMP V4.0
#
DISCID=b20ba40d
DTITLE=Various Artist - Countdown Country
DYEAR=1900
DGENRE=Country
TTITLE0=I'm Already There
TTITLE1=How Do You Like Me Now?
TTITLE2=Let's Make Love
TTITLE3=I Would've Loved You Anyway
TTITLE4=She Couldn't Change Me
TTITLE5=Born To Fly
TTITLE6=One More Day
TTITLE7=Who I Am
TTITLE8=When Somebody Loves You
TTITLE9=Ain't Nothing 'Bout You
TTITLE10=Grown Men Don't Cry
TTITLE11=Murder On Music Row
TTITLE12=I Am A Man Of Constant Sorrow
EXTD=
EXTT0=
EXTT1=
EXTT2=
EXTT3=
EXTT4=
EXTT5=
EXTT6=
EXTT7=
EXTT8=
EXTT9=
EXTT10=
EXTT11=
EXTT12=
PLAYORDER=
